<svg xmlns="http://www.w3.org/2000/svg" width="27" height="24" fill="none" viewBox="0 0 27 24"><path fill="#fff" d="M0 0H26.514V23.99H0z"></path><path fill="#111827" d="M21.247 20.065l-2.83-2.82a6.59 6.59 0 001.407-4.078 6.657 6.657 0 10-6.657 6.657 6.59 6.59 0 004.077-1.407l2.82 2.83a.834.834 0 001.365-.271.833.833 0 00-.182-.911zM8.174 13.167a4.993 4.993 0 119.985 0 4.993 4.993 0 01-9.985 0z"></path><path fill="#F1844C" d="M3.875.975l1.238 1.807c.33.481.853.794 1.433.857l2.178.236-1.807 1.239c-.481.33-.794.852-.857 1.432l-.237 2.178-1.238-1.807a1.998 1.998 0 00-1.432-.857L.974 5.824l1.808-1.239c.48-.33.794-.853.857-1.432L3.875.975zM8.59 19.77l-.337.54a1.998 1.998 0 00-.21 1.656l.19.607-.54-.337a1.998 1.998 0 00-1.655-.21l-.607.19.337-.54c.308-.494.385-1.099.21-1.655l-.19-.607.54.337c.494.308 1.099.385 1.655.21l.607-.19zM23.575 6.068l.223 1.396c.092.576.43 1.083.927 1.388l1.205.74-1.396.222a1.998 1.998 0 00-1.388.928l-.74 1.204-.222-1.396a1.997 1.997 0 00-.927-1.387l-1.205-.74 1.396-.223a1.997 1.997 0 001.388-.927l.74-1.205z"></path></svg>